<?xml version="1.0" standalone="no"?>
<!DOCTYPE svg PUBLIC "-//W3C//DTD SVG 20010904//EN"
 "http://www.w3.org/TR/2001/REC-SVG-20010904/DTD/svg10.dtd">
<svg version="1.0" xmlns="http://www.w3.org/2000/svg"
 width="960.000000pt" height="640.000000pt" viewBox="0 0 960.000000 640.000000"
 preserveAspectRatio="xMidYMid meet">
<metadata>
Created by potrace 1.16, written by Peter Selinger 2001-2019
</metadata>
<g transform="translate(0.000000,640.000000) scale(0.100000,-0.100000)"
fill="#000000" stroke="none">
<path d="M0 3200 l0 -3200 1227 0 1227 0 -28 29 c-27 28 -28 30 -18 98 5 37
10 77 10 88 0 21 1 27 57 350 69 403 100 651 110 905 8 190 13 230 30 230 7 0
45 -42 83 -92 38 -51 88 -110 112 -132 86 -78 206 -111 311 -86 107 25 249
102 249 136 0 7 5 14 10 14 6 0 43 22 82 50 39 27 77 50 84 50 7 0 21 -14 31
-30 15 -26 23 -30 61 -30 24 0 74 5 112 11 67 10 70 10 157 -27 139 -58 177
-66 230 -48 57 19 78 15 238 -53 174 -73 240 -90 297 -73 24 7 64 12 89 11 47
-2 68 13 104 73 9 15 14 14 57 -9 57 -30 62 -31 48 -4 -23 42 -2 37 95 -25
130 -82 188 -140 264 -264 34 -55 69 -103 78 -106 11 -5 14 -2 8 11 -4 10 -15
57 -25 104 -47 218 -153 473 -240 572 -27 32 -50 68 -50 79 0 19 4 20 43 14
58 -9 107 -26 107 -37 0 -5 18 -9 40 -9 33 0 47 -7 76 -35 19 -19 42 -35 51
-35 9 0 14 -3 11 -6 -10 -9 40 -55 141 -129 80 -58 231 -195 231 -209 0 -3
-18 3 -40 14 -50 25 -59 25 -52 -2 3 -15 2 -19 -7 -14 -18 12 -61 -21 -61 -47
0 -18 -2 -19 -10 -7 -8 13 -10 12 -10 -2 0 -10 -5 -18 -11 -18 -6 0 -8 -8 -4
-19 5 -16 1 -18 -22 -13 -25 5 -27 3 -14 -11 11 -14 11 -18 -3 -23 -9 -3 -23
-4 -31 0 -14 5 -21 -18 -16 -48 1 -6 -3 -20 -10 -33 -11 -20 -10 -25 7 -39 10
-8 14 -13 9 -10 -6 2 -17 0 -25 -5 -13 -8 -12 -12 4 -24 17 -13 21 -13 31 2
11 15 15 15 29 4 22 -18 20 -30 -6 -41 -13 -5 -17 -9 -9 -9 11 -1 10 -4 -4
-15 -20 -15 -15 -46 9 -46 7 0 17 -7 20 -16 4 -9 2 -13 -5 -8 -6 3 -21 1 -34
-6 -29 -16 -53 -7 -65 22 -5 13 -9 18 -9 12 -1 -6 52 -121 118 -255 278 -574
283 -586 289 -660 l5 -69 1863 0 1864 0 0 3200 0 3200 -4800 0 -4800 0 0
-3200z m3570 2720 c305 -21 643 -105 865 -217 260 -130 447 -347 539 -621 32
-98 67 -294 54 -307 -3 -3 -21 10 -41 28 -49 47 -196 121 -322 162 -123 41
-447 108 -625 129 -259 32 -405 38 -669 27 -140 -6 -256 -9 -257 -8 -1 1 -5
46 -8 100 -6 107 -19 169 -39 185 -17 14 -146 42 -163 35 -8 -3 -17 5 -23 20
-5 14 -15 28 -20 32 -6 3 -11 15 -11 25 0 14 -5 18 -17 13 -15 -6 -16 -4 -5 9
10 12 10 18 1 23 -6 4 -16 1 -21 -6 -10 -14 -7 -2 8 36 4 9 1 15 -7 15 -14 0
-49 29 -49 41 0 5 10 18 23 30 12 12 16 19 10 15 -29 -16 -10 24 26 57 91 83
312 160 501 176 52 5 97 9 100 9 3 1 70 -3 150 -8z m-1077 -1194 c69 -64 138
-280 111 -350 -10 -26 -29 4 -32 50 -1 23 -9 59 -17 80 l-14 39 6 -55 c7 -69
-5 -59 -42 35 -37 96 -69 148 -100 165 -14 8 -23 20 -21 27 4 8 -3 13 -17 14
-21 0 -21 1 -2 9 41 18 101 11 128 -14z m700 -277 c34 -11 96 -37 137 -56 41
-20 97 -38 123 -41 61 -6 170 12 300 49 111 32 196 37 329 20 40 -6 105 -13
143 -17 l70 -7 -45 -9 c-152 -28 -460 -102 -635 -153 -185 -54 -217 -54 -303
-2 -67 40 -192 185 -192 221 0 20 -2 20 73 -5z m1408 -3 c45 -19 83 -61 109
-119 23 -52 40 -229 39 -412 -1 -84 -2 -94 -11 -65 -5 19 -21 50 -35 69 -71
92 -174 72 -430 -85 -132 -81 -284 -156 -403 -198 -41 -15 -79 -31 -85 -36 -6
-5 -43 -16 -83 -25 -39 -9 -75 -22 -79 -29 -5 -8 -22 -20 -39 -29 -17 -9 -53
-36 -80 -61 l-49 -46 35 7 c44 8 136 42 219 82 44 20 69 27 76 21 12 -10 75 6
75 18 0 4 33 8 73 10 73 3 215 44 229 66 5 8 8 7 8 -3 0 -17 34 -9 115 29 34
16 74 32 90 36 15 4 30 15 32 25 6 23 23 25 23 4 0 -12 9 -13 48 -8 26 3 55
10 64 14 32 17 83 9 148 -23 36 -18 70 -34 75 -37 6 -2 4 3 -4 13 -8 9 -11 19
-7 23 3 3 6 2 6 -4 0 -5 7 -10 15 -10 8 0 12 4 9 8 -2 4 0 10 5 13 5 4 17 -15
27 -40 12 -31 40 -68 86 -112 37 -36 68 -72 68 -79 0 -6 7 -16 16 -21 14 -8
14 -20 4 -108 -7 -54 -13 -100 -14 -102 -2 -1 -24 29 -51 68 -27 39 -50 68
-53 65 -8 -8 27 -84 62 -133 60 -87 84 -148 52 -136 -9 3 -16 -6 -21 -28 -4
-18 -7 -36 -7 -39 1 -4 4 -35 8 -70 3 -35 8 -67 10 -70 2 -4 -3 -12 -11 -19
-8 -7 -15 -17 -15 -22 0 -6 -9 -22 -19 -37 -11 -15 -23 -42 -28 -61 -9 -33
-10 -30 -27 55 -10 50 -24 137 -32 195 -21 161 -33 198 -77 234 -33 26 -48 31
-108 34 -62 4 -77 1 -133 -27 -90 -44 -146 -105 -199 -215 -63 -130 -102 -155
-193 -122 -56 19 -151 29 -158 17 -4 -6 1 -22 10 -36 21 -32 16 -31 -57 5 -76
39 -172 64 -214 56 -35 -7 -88 -58 -100 -95 -7 -24 -40 -28 -70 -8 -23 15
-146 63 -188 73 -15 3 -30 10 -33 15 -3 5 -18 9 -34 9 -16 0 -31 4 -35 9 -3 5
-30 21 -60 35 -82 37 -163 94 -225 158 l-55 57 -40 -18 -40 -17 -31 28 c-23
21 -30 35 -26 53 6 32 -42 79 -121 118 -31 16 -63 36 -69 46 -15 21 -70 51
-93 51 -8 0 -15 5 -15 10 0 6 -13 10 -29 10 -16 0 -36 7 -45 15 -8 8 -24 15
-36 15 -11 0 -54 16 -94 35 -41 19 -86 36 -99 37 -14 1 -23 6 -21 10 3 4 -10
5 -28 1 -29 -6 -31 -4 -20 9 7 9 22 13 36 11 18 -4 25 1 30 19 7 21 8 22 15 4
7 -17 10 -16 41 15 18 19 27 26 20 16 -24 -32 0 -31 32 2 17 18 41 37 52 43
12 6 5 -4 -14 -22 -25 -24 -31 -34 -21 -38 8 -3 23 7 33 21 11 15 45 42 76 61
80 48 180 58 266 26 86 -33 339 -205 410 -280 33 -34 64 -63 70 -64 6 -1 35
-10 64 -20 56 -19 141 -16 172 5 12 9 11 10 -7 6 -24 -5 -83 42 -83 67 0 9 -4
16 -10 16 -17 0 -11 22 12 41 11 11 28 19 37 19 23 -1 94 -34 114 -55 15 -14
23 -16 40 -7 12 6 43 20 70 31 26 11 47 22 47 26 0 3 -16 -2 -36 -10 -20 -8
-44 -15 -54 -15 -21 0 -44 50 -69 150 -11 41 -27 102 -36 134 -19 68 -15 92
21 136 51 60 70 64 274 65 l185 0 80 38 c66 32 96 55 175 135 115 117 173 195
157 211 -8 8 0 15 29 27 102 44 205 55 265 30z m-1730 -406 c24 -42 78 -88
172 -147 83 -52 86 -55 52 -48 -57 12 -172 72 -209 110 -47 47 -66 90 -66 153
0 64 13 76 22 18 3 -25 17 -64 29 -86z m-864 -628 c9 -45 8 -98 -1 -176 l-8
-58 -33 32 c-46 45 -88 125 -81 155 7 28 34 57 46 50 4 -3 15 6 24 20 21 32
44 23 53 -23z m3069 -499 c13 -17 13 -17 14 0 0 33 18 16 30 -30 8 -27 21 -58
31 -71 34 -44 119 -263 126 -322 4 -46 3 -58 -8 -57 -8 1 -33 -5 -56 -12 -23
-8 -48 -11 -56 -8 -8 3 -28 29 -45 59 -16 29 -58 85 -93 125 -63 71 -63 71
-91 57 -27 -14 -28 -13 -25 8 1 13 9 30 18 38 17 16 49 107 49 138 0 10 8 28
18 40 15 17 21 19 32 9 10 -10 12 -8 6 6 -13 37 25 52 50 20z m-3393 -405 c9
-5 17 -14 17 -20 0 -6 30 -61 66 -121 167 -276 251 -509 288 -799 32 -251 32
-568 0 -568 -8 0 -14 -10 -15 -22 -1 -22 -1 -22 -9 2 -4 14 -8 18 -9 9 -1 -18
-6 -19 -133 -21 -60 0 -103 4 -111 11 -8 6 -16 8 -20 5 -21 -22 -157 77 -157
114 0 8 -6 12 -14 9 -13 -5 -46 21 -46 37 0 9 -16 29 -62 77 -21 21 -38 45
-38 54 0 9 -11 27 -25 41 -14 14 -25 30 -25 35 0 17 -25 37 -51 41 -16 2 -25
11 -27 25 -2 12 -10 24 -18 27 -9 3 -12 1 -9 -4 3 -6 1 -10 -4 -10 -6 0 -11 6
-11 14 0 8 -10 22 -22 31 -13 8 -24 20 -24 25 -1 6 -2 16 -3 24 0 8 -14 19
-31 25 -20 7 -30 17 -30 30 0 12 -6 21 -14 21 -8 0 -17 14 -21 30 -4 17 -12
30 -20 30 -7 0 -18 13 -25 29 -6 16 -23 38 -36 48 -13 10 -24 23 -24 30 0 7
-4 13 -10 13 -5 0 -10 7 -10 15 0 8 -9 15 -19 15 -11 0 -22 9 -26 20 -3 11
-18 25 -33 32 -18 9 -28 22 -30 41 -2 18 -9 27 -22 27 -13 0 -21 10 -25 31 -4
17 -15 33 -24 36 -15 4 -41 46 -41 67 0 6 -14 23 -31 37 l-32 26 69 69 c84 83
144 135 153 130 3 -2 6 6 6 19 0 14 -5 21 -12 18 -7 -3 -10 -10 -6 -16 3 -6 1
-7 -5 -3 -11 7 -173 -92 -187 -113 -3 -6 -14 -11 -23 -11 -15 1 -15 2 2 15 11
8 16 15 11 15 -5 0 10 18 34 40 27 25 41 46 37 55 -3 8 -2 14 2 13 11 -3 92
36 92 44 0 5 9 8 19 8 11 0 21 5 23 10 2 6 12 12 23 14 11 2 33 11 49 20 16 8
33 13 38 10 4 -3 17 0 28 6 81 43 547 72 613 38z"/>
<path d="M4668 488 c-62 -67 -110 -133 -156 -215 l-47 -86 -145 7 c-80 3 -273
13 -430 21 -315 16 -469 19 -487 7 -6 -4 -28 -32 -48 -62 -21 -30 -58 -79 -82
-107 l-45 -53 677 0 676 0 40 32 c30 24 53 33 87 36 111 7 146 6 149 -5 2 -6
15 -23 28 -37 l24 -26 303 1 c277 1 298 2 248 15 -30 7 -96 20 -147 27 -91 14
-92 14 -175 82 -105 85 -162 146 -245 264 -37 51 -81 102 -98 112 -47 29 -91
25 -127 -13z"/>
<path d="M2910 188 c-19 -12 -43 -23 -54 -25 -17 -3 -116 -74 -191 -137 l-30
-25 194 -1 c163 0 192 2 177 13 -17 13 -17 14 8 31 22 14 24 19 14 29 -7 7
-20 16 -29 19 -9 4 -19 23 -22 45 -4 21 -12 46 -19 56 -12 16 -15 16 -48 -5z"/>
</g>
</svg>
